<?xml version="1.0" encoding="UTF-8"?>
<!DOCTYPE svg PUBLIC "-//W3C//DTD SVG 1.1//EN" "http://www.w3.org/Graphics/SVG/1.1/DTD/svg11.dtd">
<!-- Creator: CorelDRAW X7 -->
<svg xmlns="http://www.w3.org/2000/svg" xml:space="preserve" width="92.652mm" height="73.678mm" version="1.1" style="shape-rendering:geometricPrecision; text-rendering:geometricPrecision; image-rendering:optimizeQuality; fill-rule:evenodd; clip-rule:evenodd"
viewBox="0 0 92652 73678"
 xmlns:xlink="http://www.w3.org/1999/xlink">
 <defs>
  <style type="text/css">
   <![CDATA[
    .fil7 {fill:#FEFEFE}
    .fil2 {fill:#F8BB7D}
    .fil5 {fill:#F8BB7D}
    .fil4 {fill:#F08219}
    .fil1 {fill:#F08219}
    .fil6 {fill:#C0691D}
    .fil3 {fill:#C0691D}
    .fil8 {fill:#765B3D}
    .fil0 {fill:#614B32}
    .fil9 {fill:#F08219;fill-rule:nonzero}
    .fil10 {fill:#614B32;fill-rule:nonzero}
   ]]>
  </style>
 </defs>
 <g id="Слой_x0020_1">
  <metadata id="CorelCorpID_0Corel-Layer"/>
  <g id="_3121413175648">
   <g>
    <path class="fil0" d="M40675 2693c-3870,179 -3717,662 -6512,-1246 -720,-492 -1683,-1395 -2771,-1439 -1170,-47 -2742,105 -3734,496 -2549,1005 -2804,4527 -2500,5671 121,457 1464,1931 1851,2426 2695,3444 1296,3735 96,9215 -505,2306 -908,4745 -1052,7194 -337,5756 1460,4809 2516,5661 -1190,2692 -1322,2094 373,3009 765,414 1910,2597 2479,3391 1638,2284 12123,8522 14541,8603 104,4 228,330 369,307 140,23 265,-303 369,-307 2417,-81 12903,-6319 14541,-8603 569,-794 1714,-2977 2479,-3391 1694,-915 1563,-317 372,-3009 1056,-852 2854,95 2517,-5661 -144,-2449 -547,-4888 -1053,-7194 -1200,-5480 -2598,-5771 97,-9215 387,-495 1730,-1969 1851,-2426 304,-1144 48,-4666 -2500,-5671 -992,-391 -2564,-543 -3734,-496 -1088,44 -2051,947 -2772,1439 -2795,1908 -2641,1425 -6512,1246 -4198,-195 -7112,-195 -11311,0z"/>
    <g>
     <path class="fil0" d="M40564 37927c2306,1045 4842,1478 5767,3368 924,-1890 3461,-2323 5767,-3368 1326,-601 1555,-1164 2173,-2400 399,-796 1597,-1545 2143,-2420 2424,-139 4009,-270 4446,3046l-3526 2577c-1245,863 -2549,1611 -3870,2424 -1333,821 -2592,1518 -4024,2269 -1250,655 -2057,1392 -3109,1290 -1052,102 -1859,-635 -3109,-1290 -1433,-751 -2691,-1448 -4024,-2269 -1321,-813 -2626,-1561 -3870,-2424l-3526 -2577c437,-3316 2021,-3185 4445,-3046 547,875 1745,1624 2143,2420 619,1236 848,1799 2174,2400zm5767 -6571c-1123,-156 -3411,-715 -3787,-922 1373,-263 2589,-357 3787,-355 1198,-2 2414,92 3787,355 -376,207 -2665,766 -3787,922zm0 -8001c-946,52 -1813,-211 -3444,-905 -662,4454 1565,1317 2074,4104 -791,133 -2504,296 -3172,504 -1046,327 -590,1558 -2541,1162 -667,-959 -637,-3226 18,-4382 443,-782 666,-776 1178,-1401 771,-939 393,-631 185,-1774 -585,-3213 3880,-2706 4353,-6025 -3232,577 -3822,-358 -6608,-468l166 3653c-2529,1600 -1116,2986 -2011,4252 -749,-242 -1955,-1228 -2098,-2018 -94,-520 373,-2718 417,-3507 -649,385 -2055,1713 -2455,2408 -2815,4902 -2835,3850 -3922,10658 -976,97 -659,8 -1035,-717 -818,-1581 -866,-171 -369,-4234 253,-2066 497,-4154 819,-6188 388,-2457 2158,-9098 3196,-10816l201 1997c315,-196 1604,-1825 1966,-2281 488,-616 1266,-1658 1683,-1815l259 -49c-800,-1982 -2477,-2893 -5240,-2827 -3808,91 -1534,4627 -1377,5265 -1470,-151 -2538,-730 -2579,-2288 -178,-6796 4815,-4314 8015,-2921 5419,2358 4757,-34 10811,773 834,111 2186,111 3020,0 6054,-807 5391,1585 10811,-773 3199,-1393 8192,-3875 8015,2921 -41,1558 -1110,2137 -2579,2288 157,-638 2431,-5174 -1377,-5265 -2763,-66 -4441,845 -5240,2827l258 49c418,157 1196,1199 1684,1815 362,456 1651,2085 1966,2281l201 -1997c1038,1718 2808,8359 3196,10816 321,2034 566,4122 819,6188 497,4063 449,2653 -369,4234 -376,725 -59,814 -1035,717 -1087,-6808 -1107,-5756 -3923,-10658 -399,-695 -1805,-2023 -2454,-2408 44,789 511,2987 417,3507 -143,790 -1349,1776 -2098,2018 -896,-1266 518,-2652 -2011,-4252l166 -3653c-2786,110 -3377,1045 -6608,468 473,3319 4938,2812 4353,6025 -208,1143 -586,835 185,1774 512,625 734,619 1178,1401 654,1156 685,3423 17,4382 -1950,396 -1495,-835 -2540,-1162 -668,-208 -2381,-371 -3173,-504 509,-2787 2737,350 2074,-4104 -1630,694 -2497,957 -3443,905zm-5656 -20662c-3870,179 -3717,662 -6512,-1246 -720,-492 -1683,-1395 -2771,-1439 -1170,-47 -2742,105 -3734,496 -2549,1005 -2804,4527 -2500,5671 121,457 1464,1931 1851,2426 2695,3444 1296,3735 96,9215 -505,2306 -908,4745 -1052,7194 -337,5756 1460,4809 2516,5661 -1190,2692 -1322,2094 373,3009 765,414 1910,2597 2479,3391 1638,2284 12123,8522 14541,8603 104,4 228,330 369,307 140,23 265,-303 369,-307 2417,-81 12903,-6319 14541,-8603 569,-794 1714,-2977 2479,-3391 1694,-915 1563,-317 372,-3009 1056,-852 2854,95 2517,-5661 -144,-2449 -547,-4888 -1053,-7194 -1200,-5480 -2598,-5771 97,-9215 387,-495 1730,-1969 1851,-2426 304,-1144 48,-4666 -2500,-5671 -992,-391 -2564,-543 -3734,-496 -1088,44 -2051,947 -2772,1439 -2795,1908 -2641,1425 -6512,1246 -4198,-195 -7112,-195 -11311,0z"/>
     <path class="fil1" d="M39405 30885c-2119,757 -3223,3088 -2467,5207l1048 2935 -2033 725 -1048 -2934c-1157,-3242 532,-6808 3774,-7966l-90 606 453 411 -60 594 423 422z"/>
     <path class="fil2" d="M37278 32164c-1441,2617 -424,4066 415,6646l-1545 551c1843,-1325 -1812,-4244 1130,-7197z"/>
     <path class="fil1" d="M53538 30885c2119,757 3224,3088 2467,5207l-1048 2935 2033 725 1048 -2934c1157,-3242 -532,-6808 -3774,-7966l90 606 -453 411 60 594 -423 422z"/>
     <path class="fil3" d="M64469 42401l-5261 10891c537,30 1053,60 1590,90 554,22 811,-137 1053,-719 1216,-2569 2432,-5138 3648,-7707 278,-579 297,-832 -122,-1352l-908 -1203z"/>
     <path class="fil4" d="M55145 38960c1292,461 2659,949 4104,1464 1535,548 3166,1130 4902,1749 391,139 567,566 385,946 -781,1630 -1562,3261 -2341,4890 -780,1628 -1561,3259 -2341,4888 -182,379 -623,507 -977,290 -1571,-964 -3047,-1870 -4435,-2723 -1309,-803 -2545,-1562 -3714,-2279 -245,-150 -321,-523 -172,-833 638,-1333 1277,-2667 1915,-4000 638,-1333 1277,-2667 1915,-4001 149,-310 489,-487 759,-391z"/>
     <path class="fil1" d="M57748 26475l250 -1106 1028 658 -1278 448zm-403 1300l1388 222 -733 1323 -655 -1545zm-2537 -210l1301 -1217 756 1762 -2057 -545z"/>
     <path class="fil5" d="M56101 30143c1662,1537 2299,3053 1959,5837 213,-2257 -847,-4694 -1959,-5837z"/>
     <path class="fil5" d="M64712 42915c-49,396 -181,543 -348,908 1203,-562 968,1086 721,1653 848,-1415 546,-1391 -373,-2561z"/>
     <path class="fil6" d="M55511 38119c-161,449 -118,343 -279,792 558,190 1116,381 1674,572 136,-370 68,-185 204,-555 -1041,150 -1146,-15 -1599,-809z"/>
     <path class="fil7" d="M57853 43715c235,74 565,336 688,636 128,313 99,745 -47,1049 -147,304 -258,386 -448,525 -190,139 -412,234 -631,259 -146,303 -293,607 -440,911 -147,304 -295,610 -443,915 -90,188 -238,306 -398,343 -157,36 -328,-6 -469,-128 -140,-121 -226,-294 -258,-481 -31,-182 -9,-378 73,-546 0,0 0,0 0,0 132,-274 266,-547 398,-820 133,-272 266,-544 398,-816 -156,-329 -136,-781 26,-1113 162,-332 376,-518 644,-651 139,-68 287,-114 440,-130 152,-16 232,-27 467,47z"/>
     <path class="fil6" d="M57877 43703c238,74 573,338 698,640 14,35 27,70 39,105 -138,-211 -392,-385 -594,-447 -203,-61 -318,-61 -471,-44 -154,16 -303,63 -444,132 -269,133 -485,320 -649,651 -163,332 -184,783 -27,1110 -134,272 -268,544 -402,816 -134,272 -269,546 -403,819 0,0 0,0 0,0 -83,168 -105,364 -74,545 8,46 19,90 33,134 -102,-115 -166,-261 -192,-414 -32,-183 -10,-380 74,-550 0,0 0,0 0,0 135,-274 270,-549 405,-823 135,-274 270,-547 404,-820 -158,-331 -138,-784 27,-1118 164,-333 382,-520 654,-653 141,-69 292,-115 448,-131 154,-15 235,-26 474,48z"/>
     <path class="fil1" d="M34934 26475l-250 -1106 -1028 658 1278 448zm402 1300l-1387 222 733 1323 654 -1545zm2537 -210l-1301 -1217 -755 1762 2056 -545z"/>
    </g>
    <path class="fil8" d="M38374 14170c2786,110 3376,1045 6608,468 -473,3319 -4938,2812 -4353,6025 208,1143 586,835 -185,1774 -512,625 -735,619 -1178,1401 -655,1156 -685,3423 -18,4382 1951,396 1495,-835 2541,-1162 668,-208 2381,-371 3172,-504 -509,-2787 -2736,350 -2074,-4104 1631,694 2498,957 3444,905 946,52 1813,-211 3443,-905 663,4454 -1565,1317 -2074,4104 792,133 2505,296 3173,504 1045,327 590,1558 2540,1162 668,-959 637,-3226 -17,-4382 -444,-782 -666,-776 -1178,-1401 -771,-939 -393,-631 -185,-1774 585,-3213 -3880,-2706 -4353,-6025 3231,577 3822,-358 6608,-468l-166 3653c2529,1600 1115,2986 2011,4252 749,-242 1955,-1228 2098,-2018 94,-520 -373,-2718 -417,-3507 649,385 2055,1713 2454,2408 2816,4902 2836,3850 3923,10658 976,97 659,8 1035,-717 818,-1581 866,-171 369,-4234 -253,-2066 -498,-4154 -819,-6188 -388,-2457 -2158,-9098 -3196,-10816l-201 1997c-315,-196 -1604,-1825 -1966,-2281 -488,-616 -1266,-1658 -1684,-1815l-258 -49c799,-1982 2477,-2893 5240,-2827 3808,91 1534,4627 1377,5265 1469,-151 2538,-730 2579,-2288 177,-6796 -4816,-4314 -8015,-2921 -5420,2358 -4757,-34 -10811,773 -834,111 -2186,111 -3020,0 -6054,-807 -5392,1585 -10811,-773 -3200,-1393 -8193,-3875 -8015,2921 41,1558 1109,2137 2579,2288 -157,-638 -2431,-5174 1377,-5265 2763,-66 4440,845 5240,2827l-259 49c-417,157 -1195,1199 -1683,1815 -362,456 -1651,2085 -1966,2281l-201 -1997c-1038,1718 -2808,8359 -3196,10816 -322,2034 -566,4122 -819,6188 -497,4063 -449,2653 369,4234 376,725 59,814 1035,717 1087,-6808 1107,-5756 3922,-10658 400,-695 1806,-2023 2455,-2408 -44,789 -511,2987 -417,3507 143,790 1349,1776 2098,2018 895,-1266 -518,-2652 2011,-4252l-166 -3653z"/>
    <path class="fil8" d="M50118 30434c-1373,-263 -2589,-357 -3787,-355 -1198,-2 -2414,92 -3787,355 376,207 2664,766 3787,922 1122,-156 3411,-715 3787,-922z"/>
    <path class="fil8" d="M52098 37927c-2306,1045 -4843,1478 -5767,3368 -925,-1890 -3461,-2323 -5767,-3368 -1326,-601 -1555,-1164 -2174,-2400 -290,-580 -1005,-1135 -1583,-1732 -173,737 -142,1531 131,2297l1048 2935 -1432 511c864,546 1750,1067 2644,1616 1333,821 2591,1518 4024,2269 1250,655 2057,1392 3109,1290 1052,102 1859,-635 3109,-1290 1432,-751 2691,-1448 4024,-2269 28,-17 56,-34 84,-51l838 -1752c122,-253 370,-418 604,-417l1015 -2842c303,-849 308,-1731 68,-2533 -602,689 -1473,1313 -1802,1968 -618,1236 -847,1799 -2173,2400z"/>
    <path class="fil8" d="M34905 36818c-449,-1260 -469,-2568 -136,-3765 -1589,25 -2626,516 -2967,3100l3526 2577c114,79 229,157 344,235l-767 -2147z"/>
    <path class="fil8" d="M58177 33063c331,1194 309,2499 -139,3755l-675 1891 3497 -2556c-320,-2427 -1255,-3007 -2683,-3090z"/>
   </g>
   <polygon class="fil9" points="707,57843 3521,57843 5041,59790 6561,57843 9428,57843 9428,66924 6761,66924 6761,61670 5187,63844 4987,63844 3401,61670 3374,66924 707,66924 707,60483 0,60483 "/>
   <polygon id="1" class="fil9" points="10700,66924 10700,60483 10007,60483 10700,57843 13981,57843 14167,57470 16674,57470 15967,60483 13367,60483 13367,61270 16461,61270 15967,63430 13367,63430 13367,64284 16514,64284 15847,66924 "/>
   <path id="2" class="fil9" d="M19315 57843l3470 0 2042 6441 920 0 -706 2640 -8388 0 707 -2640 693 0 1269 -3801 -733 0 726 -2640zm2192 4347l-94 0 -600 2094 1281 0 -587 -2094z"/>
   <path id="3" class="fil9" d="M26379 66924l0 -6441 -693 0 693 -2640 4134 0c774,0 1396,236 1867,707 445,444 667,995 667,1653 0,445 -102,838 -307,1180 -204,343 -511,589 -920,741 489,186 858,489 1107,902 249,416 373,889 373,1425 0,713 -260,1304 -780,1771 -520,469 -1189,702 -2007,702l-4134 0zm2667 -6441l0 1067 827 0c374,0 560,-178 560,-533 0,-356 -218,-534 -653,-534l-734 0zm0 2667l0 1307 707 0c276,0 471,-58 587,-175 116,-116 173,-278 173,-485 0,-215 -57,-378 -173,-484 -116,-109 -311,-163 -587,-163l-707 0z"/>
   <polygon id="4" class="fil9" points="34372,66924 34372,60483 33679,60483 34372,57843 37653,57843 37840,57470 40347,57470 39640,60483 37039,60483 37039,61270 40133,61270 39640,63430 37039,63430 37039,64284 40187,64284 39520,66924 "/>
   <polygon id="5" class="fil9" points="45352,57843 48020,57843 48020,61097 48073,61097 49686,57843 52647,57843 50366,62124 53047,66924 49886,66924 48073,63537 48020,63537 48020,66924 45352,66924 45352,63537 45299,63537 43486,66924 40325,66924 43006,62130 40725,57843 43686,57843 45299,61097 45352,61097 "/>
   <path id="6" class="fil9" d="M54612 57843l4414 0 2667 9081 -2947 0 -320 -1213 -2453 0 -294 1213 -2854 0 1787 -6441 -720 0 720 -2640zm2627 2640l-93 0 -733 2881 1520 0 -694 -2881z"/>
   <polygon id="7" class="fil9" points="61992,66924 61992,60483 60512,60483 61205,57843 64139,57843 64326,57470 66833,57470 66019,60483 64659,60483 64659,66924 "/>
   <polygon id="8" class="fil9" points="67385,57843 70052,57843 70052,60963 72172,60963 72172,57843 74839,57843 74839,66924 72172,66924 72172,63604 70052,63604 70052,66924 67385,66924 67385,60483 66678,60483 "/>
   <polygon id="9" class="fil9" points="76151,57843 78818,57843 78818,62364 81405,57843 83779,57843 83779,66924 81112,66924 81112,63257 81058,63257 79032,66924 76151,66924 76151,60483 75431,60483 "/>
   <polygon id="10" class="fil9" points="84944,57843 87611,57843 87611,61097 87678,61097 89291,57843 92252,57843 89972,62124 92652,66924 89491,66924 87678,63537 87611,63537 87611,66924 84944,66924 84944,60483 84251,60483 "/>
   <path class="fil10" d="M2701 72282l-533 0 0 -475 -10 0c-167,364 -412,545 -737,545 -239,0 -425,-80 -561,-242 -135,-162 -202,-377 -202,-644 0,-573 264,-907 792,-1002l721 -127c0,-433 -165,-650 -494,-650 -289,0 -550,126 -782,375l0 -602c256,-191 551,-285 886,-285 614,0 920,378 920,1132l0 1975zm-530 -1492l-510 89c-158,26 -277,74 -357,144 -80,71 -120,193 -120,369 0,129 37,234 110,316 74,82 173,123 296,123 167,0 306,-74 416,-221 110,-147 165,-332 165,-556l0 -264z"/>
   <path id="1" class="fil10" d="M4440 72282l0 -3036 1160 0c260,0 467,66 619,198 151,133 227,314 227,543 0,387 -159,623 -477,706 378,59 567,292 567,699 0,251 -79,463 -240,634 -159,171 -357,256 -594,256l-1262 0zm550 -2550l0 757 487 0c275,0 411,-134 411,-401 0,-237 -119,-356 -360,-356l-538 0zm0 1233l0 828 564 0c282,0 423,-143 423,-427 0,-267 -153,-401 -458,-401l-529 0z"/>
   <path id="2" class="fil10" d="M10052 72282l-533 0 0 -475 -10 0c-167,364 -412,545 -737,545 -239,0 -426,-80 -561,-242 -135,-162 -202,-377 -202,-644 0,-573 264,-907 791,-1002l721 -127c0,-433 -164,-650 -493,-650 -289,0 -550,126 -782,375l0 -602c256,-191 551,-285 886,-285 614,0 920,378 920,1132l0 1975zm-531 -1492l-509 89c-158,26 -277,74 -357,144 -80,71 -120,193 -120,369 0,129 37,234 110,316 74,82 172,123 295,123 168,0 307,-74 416,-221 110,-147 165,-332 165,-556l0 -264z"/>
   <path id="3" class="fil10" d="M12351 71834l-10 0 0 1844 -550 0 0 -4432 550 0 0 533 10 0c188,-402 463,-604 824,-604 309,0 549,135 722,406 172,271 258,634 258,1091 0,506 -98,911 -292,1215 -194,305 -459,456 -796,457 -310,-1 -549,-170 -716,-510zm-15 -1198l0 377c0,221 57,409 170,563 113,154 257,231 430,231 204,0 364,-99 481,-297 115,-199 174,-476 174,-832 0,-299 -55,-532 -163,-701 -108,-169 -255,-253 -440,-253 -195,0 -353,87 -473,260 -119,174 -179,391 -179,652z"/>
   <path id="4" class="fil10" d="M17989 72282l-498 0 0 -2226c-31,78 -80,188 -144,328l-1023 1898 -540 0 0 -3036 505 0 0 2182c18,-52 55,-140 112,-267l1035 -1915 553 0 0 3036z"/>
   <path id="5" class="fil10" d="M21980 72282l-498 0 0 -2226c-31,78 -80,188 -145,328l-1022 1898 -540 0 0 -3036 505 0 0 2182c17,-52 55,-140 111,-267l1036 -1915 553 0 0 3036zm-159 -4497c-25,296 -123,530 -293,700 -169,171 -383,257 -638,257 -263,0 -476,-86 -642,-257 -165,-170 -255,-404 -271,-700l457 0c23,359 176,539 463,539 126,0 231,-47 314,-143 83,-95 133,-226 153,-396l457 0z"/>
   <polygon id="6" class="fil10" points="25927,72282 25376,72282 25376,70953 24318,70953 24318,72282 23765,72282 23765,69246 24318,69246 24318,70438 25376,70438 25376,69246 25927,69246 "/>
   <path id="7" class="fil10" d="M28788 72352c-374,0 -674,-141 -897,-425 -224,-283 -336,-659 -336,-1128 0,-510 117,-907 350,-1195 233,-286 547,-429 942,-429 380,0 675,139 887,418 212,278 318,665 318,1159 0,484 -114,872 -343,1163 -229,292 -535,437 -921,437zm26 -2628c-215,0 -385,93 -509,281 -125,188 -188,446 -188,777 0,318 64,569 190,751 126,183 295,274 507,274 216,0 383,-90 499,-269 116,-180 175,-436 175,-768 0,-334 -59,-592 -175,-774 -116,-182 -283,-272 -499,-272z"/>
   <path id="8" class="fil10" d="M33734 70951l-1654 0c6,280 75,497 207,649 132,152 313,228 544,228 260,0 497,-97 714,-290l0 553c-221,174 -514,261 -878,261 -357,0 -637,-137 -840,-412 -203,-277 -305,-664 -305,-1164 0,-473 112,-857 336,-1155 224,-297 501,-446 833,-446 332,0 589,134 771,400 181,267 272,637 272,1112l0 264zm-531 -487c-2,-247 -48,-439 -140,-576 -91,-137 -218,-206 -379,-206 -158,0 -292,72 -402,217 -110,143 -177,333 -202,565l1123 0z"/>
   <path id="9" class="fil10" d="M38262 72282l0 -3036 1160 0c260,0 466,66 619,198 151,133 227,314 227,543 0,387 -159,623 -477,706 378,59 567,292 567,699 0,251 -79,463 -240,634 -159,171 -357,256 -595,256l-1261 0zm550 -2550l0 757 487 0c275,0 411,-134 411,-401 0,-237 -119,-356 -360,-356l-538 0zm0 1233l0 828 564 0c282,0 423,-143 423,-427 0,-267 -153,-401 -458,-401l-529 0z"/>
   <path id="10" class="fil10" d="M43749 72142c-194,141 -425,210 -691,210 -360,0 -650,-140 -872,-421 -221,-282 -332,-647 -332,-1096 0,-500 119,-902 357,-1205 238,-303 556,-455 954,-455 222,0 417,49 586,145l0 640c-169,-157 -349,-236 -540,-236 -233,0 -424,98 -572,294 -149,197 -223,454 -223,772 0,315 70,563 210,745 140,181 327,272 563,272 198,0 384,-88 560,-263l0 598z"/>
   <polygon id="11" class="fil10" points="47566,72282 46867,72282 45923,70802 45914,70802 45914,72282 45361,72282 45361,69246 45914,69246 45914,70642 45923,70642 46814,69246 47488,69246 46478,70693 "/>
   <path id="12" class="fil10" d="M49537 71834l-10 0 0 1844 -550 0 0 -4432 550 0 0 533 10 0c188,-402 463,-604 825,-604 308,0 548,135 721,406 172,271 258,634 258,1091 0,506 -97,911 -292,1215 -194,305 -459,456 -796,457 -310,-1 -549,-170 -716,-510zm-15 -1198l0 377c0,221 57,409 170,563 113,154 257,231 430,231 204,0 364,-99 481,-297 115,-199 174,-476 174,-832 0,-299 -54,-532 -163,-701 -108,-169 -255,-253 -439,-253 -196,0 -354,87 -474,260 -119,174 -179,391 -179,652z"/>
   <path id="13" class="fil10" d="M55927 72282l-550 0 0 -3036 550 0 0 3036zm-2957 0l0 -3036 550 0 0 1120 664 0c252,0 452,83 600,248 149,165 223,395 223,689 0,303 -77,542 -231,717 -154,175 -348,262 -582,262l-1224 0zm550 -1420l0 925 503 0c278,0 417,-160 417,-478 0,-298 -140,-447 -422,-447l-498 0z"/>
   <polygon id="14" class="fil10" points="59367,69794 58676,69794 58676,72282 58123,72282 58123,69794 57426,69794 57426,69246 59367,69246 "/>
   <path id="15" class="fil10" d="M63074 72282l-498 0 0 -2226c-31,78 -80,188 -144,328l-1023 1898 -540 0 0 -3036 505 0 0 2182c18,-52 55,-140 111,-267l1036 -1915 553 0 0 3036z"/>
   <path id="16" class="fil10" d="M66915 70951l-1654 0c5,280 75,497 207,649 132,152 313,228 544,228 260,0 497,-97 714,-290l0 553c-221,174 -514,261 -878,261 -357,0 -637,-137 -840,-412 -203,-277 -305,-664 -305,-1164 0,-473 112,-857 336,-1155 223,-297 501,-446 833,-446 332,0 589,134 771,400 181,267 272,637 272,1112l0 264zm-531 -487c-2,-247 -48,-439 -140,-576 -91,-137 -218,-206 -379,-206 -158,0 -292,72 -402,217 -110,143 -177,333 -202,565l1123 0z"/>
   <path id="17" class="fil10" d="M71274 72199l0 -567c206,143 446,214 722,214 387,0 581,-146 581,-439 0,-292 -229,-439 -686,-439l-232 0 0 -485 222 0c407,0 610,-140 610,-418 0,-118 -43,-210 -129,-280 -86,-68 -204,-103 -352,-103 -226,0 -452,67 -678,201l0 -539c273,-115 524,-172 753,-172 644,0 966,272 966,818 0,176 -46,328 -139,454 -93,127 -223,211 -390,252l0 14c185,18 334,93 445,226 113,132 169,300 169,504 0,276 -97,497 -289,661 -194,163 -459,245 -797,245 -339,0 -597,-48 -776,-147z"/>
   <path id="18" class="fil10" d="M76615 72282l-533 0 0 -475 -10 0c-168,364 -413,545 -737,545 -239,0 -426,-80 -561,-242 -135,-162 -202,-377 -202,-644 0,-573 263,-907 791,-1002l721 -127c0,-433 -164,-650 -494,-650 -288,0 -549,126 -781,375l0 -602c255,-191 551,-285 886,-285 613,0 920,378 920,1132l0 1975zm-531 -1492l-510 89c-158,26 -276,74 -357,144 -80,71 -119,193 -119,369 0,129 37,234 110,316 73,82 172,123 295,123 168,0 307,-74 416,-221 110,-147 165,-332 165,-556l0 -264z"/>
   <path id="19" class="fil10" d="M81211 72282l-527 0 0 -2431c-31,123 -79,303 -144,542l-548 1889 -489 0 -556 -1895c-30,-103 -79,-283 -145,-542l0 2437 -449 0 0 -3036 717 0 557 1874c39,136 90,325 152,566l152 -555 545 -1885 735 0 0 3036z"/>
   <polygon id="20" class="fil10" points="85199,72282 84500,72282 83556,70802 83547,70802 83547,72282 82994,72282 82994,69246 83547,69246 83547,70642 83556,70642 84447,69246 85121,69246 84111,70693 "/>
   <path id="21" class="fil10" d="M87599 72352c-374,0 -674,-141 -897,-425 -224,-283 -336,-659 -336,-1128 0,-510 117,-907 350,-1195 233,-286 547,-429 943,-429 379,0 675,139 886,418 212,278 318,665 318,1159 0,484 -114,872 -342,1163 -230,292 -536,437 -922,437zm26 -2628c-215,0 -385,93 -509,281 -125,188 -188,446 -188,777 0,318 64,569 190,751 126,183 295,274 507,274 217,0 383,-90 499,-269 117,-180 175,-436 175,-768 0,-334 -58,-592 -175,-774 -116,-182 -282,-272 -499,-272z"/>
   <path id="22" class="fil10" d="M90490 72282l0 -3036 1159 0c261,0 467,66 619,198 152,133 228,314 228,543 0,387 -159,623 -477,706 378,59 567,292 567,699 0,251 -80,463 -240,634 -159,171 -358,256 -595,256l-1261 0zm550 -2550l0 757 486 0c275,0 412,-134 412,-401 0,-237 -120,-356 -360,-356l-538 0zm0 1233l0 828 564 0c282,0 422,-143 422,-427 0,-267 -153,-401 -458,-401l-528 0z"/>
  </g>
 </g>
</svg>
